solid base_Default_sldprt
   facet normal -1.000000e+000 0.000000e+000 1.249001e-016
      outer loop
         vertex -6.895941e-002 1.000000e-002 2.964709e+000
         vertex -6.895941e-002 1.000000e-002 -3.529099e-002
         vertex -6.895941e-002 0.000000e+000 2.964709e+000
      endloop
   endfacet
   facet normal -1.000000e+000 0.000000e+000 1.249001e-016
      outer loop
         vertex -6.895941e-002 0.000000e+000 2.964709e+000
         vertex -6.895941e-002 1.000000e-002 -3.529099e-002
         vertex -6.895941e-002 0.000000e+000 -3.529099e-002
      endloop
   endfacet
   facet normal 0.000000e+000 0.000000e+000 1.000000e+000
      outer loop
         vertex 4.931041e+000 1.000000e-002 2.964709e+000
         vertex -6.895941e-002 1.000000e-002 2.964709e+000
         vertex 4.931041e+000 0.000000e+000 2.964709e+000
      endloop
   endfacet
   facet normal 0.000000e+000 0.000000e+000 1.000000e+000
      outer loop
         vertex 4.931041e+000 0.000000e+000 2.964709e+000
         vertex -6.895941e-002 1.000000e-002 2.964709e+000
         vertex -6.895941e-002 0.000000e+000 2.964709e+000
      endloop
   endfacet
   facet normal 1.000000e+000 0.000000e+000 0.000000e+000
      outer loop
         vertex 4.931041e+000 1.000000e-002 -3.529099e-002
         vertex 4.931041e+000 1.000000e-002 2.964709e+000
         vertex 4.931041e+000 0.000000e+000 -3.529099e-002
      endloop
   endfacet
   facet normal 1.000000e+000 0.000000e+000 0.000000e+000
      outer loop
         vertex 4.931041e+000 0.000000e+000 -3.529099e-002
         vertex 4.931041e+000 1.000000e-002 2.964709e+000
         vertex 4.931041e+000 0.000000e+000 2.964709e+000
      endloop
   endfacet
   facet normal 0.000000e+000 0.000000e+000 -1.000000e+000
      outer loop
         vertex -6.895941e-002 1.000000e-002 -3.529099e-002
         vertex 4.931041e+000 1.000000e-002 -3.529099e-002
         vertex -6.895941e-002 0.000000e+000 -3.529099e-002
      endloop
   endfacet
   facet normal 0.000000e+000 0.000000e+000 -1.000000e+000
      outer loop
         vertex -6.895941e-002 0.000000e+000 -3.529099e-002
         vertex 4.931041e+000 1.000000e-002 -3.529099e-002
         vertex 4.931041e+000 0.000000e+000 -3.529099e-002
      endloop
   endfacet
   facet normal 0.000000e+000 1.000000e+000 0.000000e+000
      outer loop
         vertex 4.931041e+000 1.000000e-002 2.964709e+000
         vertex 4.931041e+000 1.000000e-002 -3.529099e-002
         vertex -6.895941e-002 1.000000e-002 2.964709e+000
      endloop
   endfacet
   facet normal 0.000000e+000 1.000000e+000 0.000000e+000
      outer loop
         vertex -6.895941e-002 1.000000e-002 2.964709e+000
         vertex 4.931041e+000 1.000000e-002 -3.529099e-002
         vertex -6.895941e-002 1.000000e-002 -3.529099e-002
      endloop
   endfacet
   facet normal 0.000000e+000 -1.000000e+000 0.000000e+000
      outer loop
         vertex 4.931041e+000 0.000000e+000 -3.529099e-002
         vertex 4.931041e+000 0.000000e+000 2.964709e+000
         vertex -6.895941e-002 0.000000e+000 -3.529099e-002
      endloop
   endfacet
   facet normal 0.000000e+000 -1.000000e+000 0.000000e+000
      outer loop
         vertex -6.895941e-002 0.000000e+000 -3.529099e-002
         vertex 4.931041e+000 0.000000e+000 2.964709e+000
         vertex -6.895941e-002 0.000000e+000 2.964709e+000
      endloop
   endfacet
endsolid