solid mass_Default_sldprt
   facet normal 3.488532e-002 0.000000e+000 -9.993913e-001
      outer loop
         vertex 3.973198e-003 3.000000e-002 -3.780245e-002
         vertex 0.000000e+000 0.000000e+000 -3.801068e-002
         vertex 0.000000e+000 3.000000e-002 -3.801068e-002
      endloop
   endfacet
   facet normal -3.488532e-002 0.000000e+000 -9.993913e-001
      outer loop
         vertex 0.000000e+000 3.000000e-002 -3.801068e-002
         vertex 0.000000e+000 0.000000e+000 -3.801068e-002
         vertex -3.973198e-003 0.000000e+000 -3.780245e-002
      endloop
   endfacet
   facet normal -6.977063e-002 0.000000e+000 -9.975630e-001
      outer loop
         vertex 0.000000e+000 3.000000e-002 -3.801068e-002
         vertex -3.973198e-003 0.000000e+000 -3.780245e-002
         vertex -3.973198e-003 3.000000e-002 -3.780245e-002
      endloop
   endfacet
   facet normal -1.391590e-001 0.000000e+000 -9.902700e-001
      outer loop
         vertex -3.973198e-003 3.000000e-002 -3.780245e-002
         vertex -3.973198e-003 0.000000e+000 -3.780245e-002
         vertex -7.902864e-003 0.000000e+000 -3.718005e-002
      endloop
   endfacet
   facet normal -1.736622e-001 0.000000e+000 -9.848053e-001
      outer loop
         vertex -3.973198e-003 3.000000e-002 -3.780245e-002
         vertex -7.902864e-003 0.000000e+000 -3.718005e-002
         vertex -7.902864e-003 3.000000e-002 -3.718005e-002
      endloop
   endfacet
   facet normal -2.419081e-001 0.000000e+000 -9.702991e-001
      outer loop
         vertex -7.902864e-003 3.000000e-002 -3.718005e-002
         vertex -7.902864e-003 0.000000e+000 -3.718005e-002
         vertex -1.174595e-002 0.000000e+000 -3.615030e-002
      endloop
   endfacet
   facet normal -2.756510e-001 0.000000e+000 -9.612578e-001
      outer loop
         vertex -7.902864e-003 3.000000e-002 -3.718005e-002
         vertex -1.174595e-002 0.000000e+000 -3.615030e-002
         vertex -1.174595e-002 3.000000e-002 -3.615030e-002
      endloop
   endfacet
   facet normal -3.420068e-001 0.000000e+000 -9.396975e-001
      outer loop
         vertex -1.174595e-002 3.000000e-002 -3.615030e-002
         vertex -1.174595e-002 0.000000e+000 -3.615030e-002
         vertex -1.546034e-002 0.000000e+000 -3.472448e-002
      endloop
   endfacet
   facet normal -3.746197e-001 0.000000e+000 -9.271786e-001
      outer loop
         vertex -1.174595e-002 3.000000e-002 -3.615030e-002
         vertex -1.546034e-002 0.000000e+000 -3.472448e-002
         vertex -1.546034e-002 3.000000e-002 -3.472448e-002
      endloop
   endfacet
   facet normal -4.383584e-001 0.000000e+000 -8.988003e-001
      outer loop
         vertex -1.546034e-002 3.000000e-002 -3.472448e-002
         vertex -1.546034e-002 0.000000e+000 -3.472448e-002
         vertex -1.900534e-002 0.000000e+000 -3.291821e-002
      endloop
   endfacet
   facet normal -4.694841e-001 0.000000e+000 -8.829409e-001
      outer loop
         vertex -1.546034e-002 3.000000e-002 -3.472448e-002
         vertex -1.900534e-002 0.000000e+000 -3.291821e-002
         vertex -1.900534e-002 3.000000e-002 -3.291821e-002
      endloop
   endfacet
   facet normal -5.299072e-001 0.000000e+000 -8.480556e-001
      outer loop
         vertex -1.900534e-002 3.000000e-002 -3.291821e-002
         vertex -1.900534e-002 0.000000e+000 -3.291821e-002
         vertex -2.234212e-002 0.000000e+000 -3.075128e-002
      endloop
   endfacet
   facet normal -5.592046e-001 0.000000e+000 -8.290296e-001
      outer loop
         vertex -1.900534e-002 3.000000e-002 -3.291821e-002
         vertex -2.234212e-002 0.000000e+000 -3.075128e-002
         vertex -2.234212e-002 3.000000e-002 -3.075128e-002
      endloop
   endfacet
   facet normal -6.156502e-001 0.000000e+000 -7.880195e-001
      outer loop
         vertex -2.234212e-002 3.000000e-002 -3.075128e-002
         vertex -2.234212e-002 0.000000e+000 -3.075128e-002
         vertex -2.543411e-002 0.000000e+000 -2.824744e-002
      endloop
   endfacet
   facet normal -6.427984e-001 0.000000e+000 -7.660353e-001
      outer loop
         vertex -2.234212e-002 3.000000e-002 -3.075128e-002
         vertex -2.543411e-002 0.000000e+000 -2.824744e-002
         vertex -2.543411e-002 3.000000e-002 -2.824744e-002
      endloop
   endfacet
   facet normal -6.946481e-001 0.000000e+000 -7.193496e-001
      outer loop
         vertex -2.543411e-002 3.000000e-002 -2.824744e-002
         vertex -2.543411e-002 0.000000e+000 -2.824744e-002
         vertex -2.824744e-002 0.000000e+000 -2.543411e-002
      endloop
   endfacet
   facet normal -7.193496e-001 0.000000e+000 -6.946481e-001
      outer loop
         vertex -2.543411e-002 3.000000e-002 -2.824744e-002
         vertex -2.824744e-002 0.000000e+000 -2.543411e-002
         vertex -2.824744e-002 3.000000e-002 -2.543411e-002
      endloop
   endfacet
   facet normal -7.660353e-001 0.000000e+000 -6.427985e-001
      outer loop
         vertex -2.824744e-002 3.000000e-002 -2.543411e-002
         vertex -2.824744e-002 0.000000e+000 -2.543411e-002
         vertex -3.075128e-002 0.000000e+000 -2.234212e-002
      endloop
   endfacet
   facet normal -7.880195e-001 0.000000e+000 -6.156502e-001
      outer loop
         vertex -2.824744e-002 3.000000e-002 -2.543411e-002
         vertex -3.075128e-002 0.000000e+000 -2.234212e-002
         vertex -3.075128e-002 3.000000e-002 -2.234212e-002
      endloop
   endfacet
   facet normal -8.290296e-001 0.000000e+000 -5.592046e-001
      outer loop
         vertex -3.075128e-002 3.000000e-002 -2.234212e-002
         vertex -3.075128e-002 0.000000e+000 -2.234212e-002
         vertex -3.291821e-002 0.000000e+000 -1.900534e-002
      endloop
   endfacet
   facet normal -8.480556e-001 0.000000e+000 -5.299072e-001
      outer loop
         vertex -3.075128e-002 3.000000e-002 -2.234212e-002
         vertex -3.291821e-002 0.000000e+000 -1.900534e-002
         vertex -3.291821e-002 3.000000e-002 -1.900534e-002
      endloop
   endfacet
   facet normal -8.829409e-001 0.000000e+000 -4.694841e-001
      outer loop
         vertex -3.291821e-002 3.000000e-002 -1.900534e-002
         vertex -3.291821e-002 0.000000e+000 -1.900534e-002
         vertex -3.472448e-002 0.000000e+000 -1.546034e-002
      endloop
   endfacet
   facet normal -8.988003e-001 0.000000e+000 -4.383584e-001
      outer loop
         vertex -3.291821e-002 3.000000e-002 -1.900534e-002
         vertex -3.472448e-002 0.000000e+000 -1.546034e-002
         vertex -3.472448e-002 3.000000e-002 -1.546034e-002
      endloop
   endfacet
   facet normal -9.271786e-001 0.000000e+000 -3.746197e-001
      outer loop
         vertex -3.472448e-002 3.000000e-002 -1.546034e-002
         vertex -3.472448e-002 0.000000e+000 -1.546034e-002
         vertex -3.615030e-002 0.000000e+000 -1.174595e-002
      endloop
   endfacet
   facet normal -9.396974e-001 0.000000e+000 -3.420068e-001
      outer loop
         vertex -3.472448e-002 3.000000e-002 -1.546034e-002
         vertex -3.615030e-002 0.000000e+000 -1.174595e-002
         vertex -3.615030e-002 3.000000e-002 -1.174595e-002
      endloop
   endfacet
   facet normal -9.612578e-001 0.000000e+000 -2.756510e-001
      outer loop
         vertex -3.615030e-002 3.000000e-002 -1.174595e-002
         vertex -3.615030e-002 0.000000e+000 -1.174595e-002
         vertex -3.718005e-002 0.000000e+000 -7.902864e-003
      endloop
   endfacet
   facet normal -9.702991e-001 0.000000e+000 -2.419081e-001
      outer loop
         vertex -3.615030e-002 3.000000e-002 -1.174595e-002
         vertex -3.718005e-002 0.000000e+000 -7.902864e-003
         vertex -3.718005e-002 3.000000e-002 -7.902864e-003
      endloop
   endfacet
   facet normal -9.848053e-001 0.000000e+000 -1.736622e-001
      outer loop
         vertex -3.718005e-002 3.000000e-002 -7.902864e-003
         vertex -3.718005e-002 0.000000e+000 -7.902864e-003
         vertex -3.780245e-002 0.000000e+000 -3.973198e-003
      endloop
   endfacet
   facet normal -9.902700e-001 0.000000e+000 -1.391590e-001
      outer loop
         vertex -3.718005e-002 3.000000e-002 -7.902864e-003
         vertex -3.780245e-002 0.000000e+000 -3.973198e-003
         vertex -3.780245e-002 3.000000e-002 -3.973198e-003
      endloop
   endfacet
   facet normal -9.975630e-001 0.000000e+000 -6.977063e-002
      outer loop
         vertex -3.780245e-002 3.000000e-002 -3.973198e-003
         vertex -3.780245e-002 0.000000e+000 -3.973198e-003
         vertex -3.801068e-002 0.000000e+000 6.982448e-018
      endloop
   endfacet
   facet normal -9.993913e-001 0.000000e+000 -3.488532e-002
      outer loop
         vertex -3.780245e-002 3.000000e-002 -3.973198e-003
         vertex -3.801068e-002 0.000000e+000 6.982448e-018
         vertex -3.801068e-002 3.000000e-002 6.982448e-018
      endloop
   endfacet
   facet normal -9.993913e-001 0.000000e+000 3.488532e-002
      outer loop
         vertex -3.801068e-002 3.000000e-002 6.982448e-018
         vertex -3.801068e-002 0.000000e+000 6.982448e-018
         vertex -3.780245e-002 0.000000e+000 3.973198e-003
      endloop
   endfacet
   facet normal -9.975630e-001 0.000000e+000 6.977063e-002
      outer loop
         vertex -3.801068e-002 3.000000e-002 6.982448e-018
         vertex -3.780245e-002 0.000000e+000 3.973198e-003
         vertex -3.780245e-002 3.000000e-002 3.973198e-003
      endloop
   endfacet
   facet normal -9.902700e-001 0.000000e+000 1.391590e-001
      outer loop
         vertex -3.780245e-002 3.000000e-002 3.973198e-003
         vertex -3.780245e-002 0.000000e+000 3.973198e-003
         vertex -3.718005e-002 0.000000e+000 7.902864e-003
      endloop
   endfacet
   facet normal -9.848053e-001 0.000000e+000 1.736622e-001
      outer loop
         vertex -3.780245e-002 3.000000e-002 3.973198e-003
         vertex -3.718005e-002 0.000000e+000 7.902864e-003
         vertex -3.718005e-002 3.000000e-002 7.902864e-003
      endloop
   endfacet
   facet normal -9.702991e-001 0.000000e+000 2.419081e-001
      outer loop
         vertex -3.718005e-002 3.000000e-002 7.902864e-003
         vertex -3.718005e-002 0.000000e+000 7.902864e-003
         vertex -3.615030e-002 0.000000e+000 1.174595e-002
      endloop
   endfacet
   facet normal -9.612578e-001 0.000000e+000 2.756510e-001
      outer loop
         vertex -3.718005e-002 3.000000e-002 7.902864e-003
         vertex -3.615030e-002 0.000000e+000 1.174595e-002
         vertex -3.615030e-002 3.000000e-002 1.174595e-002
      endloop
   endfacet
   facet normal -9.396975e-001 0.000000e+000 3.420068e-001
      outer loop
         vertex -3.615030e-002 3.000000e-002 1.174595e-002
         vertex -3.615030e-002 0.000000e+000 1.174595e-002
         vertex -3.472448e-002 0.000000e+000 1.546034e-002
      endloop
   endfacet
   facet normal -9.271786e-001 0.000000e+000 3.746197e-001
      outer loop
         vertex -3.615030e-002 3.000000e-002 1.174595e-002
         vertex -3.472448e-002 0.000000e+000 1.546034e-002
         vertex -3.472448e-002 3.000000e-002 1.546034e-002
      endloop
   endfacet
   facet normal -8.988003e-001 0.000000e+000 4.383584e-001
      outer loop
         vertex -3.472448e-002 3.000000e-002 1.546034e-002
         vertex -3.472448e-002 0.000000e+000 1.546034e-002
         vertex -3.291821e-002 0.000000e+000 1.900534e-002
      endloop
   endfacet
   facet normal -8.829409e-001 0.000000e+000 4.694841e-001
      outer loop
         vertex -3.472448e-002 3.000000e-002 1.546034e-002
         vertex -3.291821e-002 0.000000e+000 1.900534e-002
         vertex -3.291821e-002 3.000000e-002 1.900534e-002
      endloop
   endfacet
   facet normal -8.480556e-001 0.000000e+000 5.299072e-001
      outer loop
         vertex -3.291821e-002 3.000000e-002 1.900534e-002
         vertex -3.291821e-002 0.000000e+000 1.900534e-002
         vertex -3.075128e-002 0.000000e+000 2.234212e-002
      endloop
   endfacet
   facet normal -8.290296e-001 0.000000e+000 5.592046e-001
      outer loop
         vertex -3.291821e-002 3.000000e-002 1.900534e-002
         vertex -3.075128e-002 0.000000e+000 2.234212e-002
         vertex -3.075128e-002 3.000000e-002 2.234212e-002
      endloop
   endfacet
   facet normal -7.880195e-001 0.000000e+000 6.156502e-001
      outer loop
         vertex -3.075128e-002 3.000000e-002 2.234212e-002
         vertex -3.075128e-002 0.000000e+000 2.234212e-002
         vertex -2.824744e-002 0.000000e+000 2.543411e-002
      endloop
   endfacet
   facet normal -7.660353e-001 0.000000e+000 6.427984e-001
      outer loop
         vertex -3.075128e-002 3.000000e-002 2.234212e-002
         vertex -2.824744e-002 0.000000e+000 2.543411e-002
         vertex -2.824744e-002 3.000000e-002 2.543411e-002
      endloop
   endfacet
   facet normal -7.193496e-001 0.000000e+000 6.946481e-001
      outer loop
         vertex -2.824744e-002 3.000000e-002 2.543411e-002
         vertex -2.824744e-002 0.000000e+000 2.543411e-002
         vertex -2.543411e-002 0.000000e+000 2.824744e-002
      endloop
   endfacet
   facet normal -6.946481e-001 0.000000e+000 7.193496e-001
      outer loop
         vertex -2.824744e-002 3.000000e-002 2.543411e-002
         vertex -2.543411e-002 0.000000e+000 2.824744e-002
         vertex -2.543411e-002 3.000000e-002 2.824744e-002
      endloop
   endfacet
   facet normal -6.427985e-001 0.000000e+000 7.660353e-001
      outer loop
         vertex -2.543411e-002 3.000000e-002 2.824744e-002
         vertex -2.543411e-002 0.000000e+000 2.824744e-002
         vertex -2.234212e-002 0.000000e+000 3.075128e-002
      endloop
   endfacet
   facet normal -6.156502e-001 0.000000e+000 7.880195e-001
      outer loop
         vertex -2.543411e-002 3.000000e-002 2.824744e-002
         vertex -2.234212e-002 0.000000e+000 3.075128e-002
         vertex -2.234212e-002 3.000000e-002 3.075128e-002
      endloop
   endfacet
   facet normal -5.592046e-001 0.000000e+000 8.290296e-001
      outer loop
         vertex -2.234212e-002 3.000000e-002 3.075128e-002
         vertex -2.234212e-002 0.000000e+000 3.075128e-002
         vertex -1.900534e-002 0.000000e+000 3.291821e-002
      endloop
   endfacet
   facet normal -5.299072e-001 0.000000e+000 8.480556e-001
      outer loop
         vertex -2.234212e-002 3.000000e-002 3.075128e-002
         vertex -1.900534e-002 0.000000e+000 3.291821e-002
         vertex -1.900534e-002 3.000000e-002 3.291821e-002
      endloop
   endfacet
   facet normal -4.694841e-001 0.000000e+000 8.829409e-001
      outer loop
         vertex -1.900534e-002 3.000000e-002 3.291821e-002
         vertex -1.900534e-002 0.000000e+000 3.291821e-002
         vertex -1.546034e-002 0.000000e+000 3.472448e-002
      endloop
   endfacet
   facet normal -4.383584e-001 0.000000e+000 8.988003e-001
      outer loop
         vertex -1.900534e-002 3.000000e-002 3.291821e-002
         vertex -1.546034e-002 0.000000e+000 3.472448e-002
         vertex -1.546034e-002 3.000000e-002 3.472448e-002
      endloop
   endfacet
   facet normal -3.746197e-001 0.000000e+000 9.271786e-001
      outer loop
         vertex -1.546034e-002 3.000000e-002 3.472448e-002
         vertex -1.546034e-002 0.000000e+000 3.472448e-002
         vertex -1.174595e-002 0.000000e+000 3.615030e-002
      endloop
   endfacet
   facet normal -3.420068e-001 0.000000e+000 9.396974e-001
      outer loop
         vertex -1.546034e-002 3.000000e-002 3.472448e-002
         vertex -1.174595e-002 0.000000e+000 3.615030e-002
         vertex -1.174595e-002 3.000000e-002 3.615030e-002
      endloop
   endfacet
   facet normal -2.756510e-001 0.000000e+000 9.612578e-001
      outer loop
         vertex -1.174595e-002 3.000000e-002 3.615030e-002
         vertex -1.174595e-002 0.000000e+000 3.615030e-002
         vertex -7.902864e-003 0.000000e+000 3.718005e-002
      endloop
   endfacet
   facet normal -2.419081e-001 0.000000e+000 9.702991e-001
      outer loop
         vertex -1.174595e-002 3.000000e-002 3.615030e-002
         vertex -7.902864e-003 0.000000e+000 3.718005e-002
         vertex -7.902864e-003 3.000000e-002 3.718005e-002
      endloop
   endfacet
   facet normal -1.736622e-001 0.000000e+000 9.848053e-001
      outer loop
         vertex -7.902864e-003 3.000000e-002 3.718005e-002
         vertex -7.902864e-003 0.000000e+000 3.718005e-002
         vertex -3.973198e-003 0.000000e+000 3.780245e-002
      endloop
   endfacet
   facet normal -1.391590e-001 0.000000e+000 9.902700e-001
      outer loop
         vertex -7.902864e-003 3.000000e-002 3.718005e-002
         vertex -3.973198e-003 0.000000e+000 3.780245e-002
         vertex -3.973198e-003 3.000000e-002 3.780245e-002
      endloop
   endfacet
   facet normal -6.977063e-002 0.000000e+000 9.975630e-001
      outer loop
         vertex -3.973198e-003 3.000000e-002 3.780245e-002
         vertex -3.973198e-003 0.000000e+000 3.780245e-002
         vertex 4.654966e-018 0.000000e+000 3.801068e-002
      endloop
   endfacet
   facet normal -3.488532e-002 0.000000e+000 9.993913e-001
      outer loop
         vertex -3.973198e-003 3.000000e-002 3.780245e-002
         vertex 4.654966e-018 0.000000e+000 3.801068e-002
         vertex 4.654966e-018 3.000000e-002 3.801068e-002
      endloop
   endfacet
   facet normal 3.488532e-002 0.000000e+000 9.993913e-001
      outer loop
         vertex 4.654966e-018 3.000000e-002 3.801068e-002
         vertex 4.654966e-018 0.000000e+000 3.801068e-002
         vertex 3.973198e-003 0.000000e+000 3.780245e-002
      endloop
   endfacet
   facet normal 6.977063e-002 0.000000e+000 9.975630e-001
      outer loop
         vertex 4.654966e-018 3.000000e-002 3.801068e-002
         vertex 3.973198e-003 0.000000e+000 3.780245e-002
         vertex 3.973198e-003 3.000000e-002 3.780245e-002
      endloop
   endfacet
   facet normal 1.391590e-001 0.000000e+000 9.902700e-001
      outer loop
         vertex 3.973198e-003 3.000000e-002 3.780245e-002
         vertex 3.973198e-003 0.000000e+000 3.780245e-002
         vertex 7.902864e-003 0.000000e+000 3.718005e-002
      endloop
   endfacet
   facet normal 1.736622e-001 0.000000e+000 9.848053e-001
      outer loop
         vertex 3.973198e-003 3.000000e-002 3.780245e-002
         vertex 7.902864e-003 0.000000e+000 3.718005e-002
         vertex 7.902864e-003 3.000000e-002 3.718005e-002
      endloop
   endfacet
   facet normal 2.419081e-001 0.000000e+000 9.702991e-001
      outer loop
         vertex 7.902864e-003 3.000000e-002 3.718005e-002
         vertex 7.902864e-003 0.000000e+000 3.718005e-002
         vertex 1.174595e-002 0.000000e+000 3.615030e-002
      endloop
   endfacet
   facet normal 2.756510e-001 0.000000e+000 9.612578e-001
      outer loop
         vertex 7.902864e-003 3.000000e-002 3.718005e-002
         vertex 1.174595e-002 0.000000e+000 3.615030e-002
         vertex 1.174595e-002 3.000000e-002 3.615030e-002
      endloop
   endfacet
   facet normal 3.420068e-001 0.000000e+000 9.396975e-001
      outer loop
         vertex 1.174595e-002 3.000000e-002 3.615030e-002
         vertex 1.174595e-002 0.000000e+000 3.615030e-002
         vertex 1.546034e-002 0.000000e+000 3.472448e-002
      endloop
   endfacet
   facet normal 3.746197e-001 0.000000e+000 9.271786e-001
      outer loop
         vertex 1.174595e-002 3.000000e-002 3.615030e-002
         vertex 1.546034e-002 0.000000e+000 3.472448e-002
         vertex 1.546034e-002 3.000000e-002 3.472448e-002
      endloop
   endfacet
   facet normal 4.383584e-001 0.000000e+000 8.988003e-001
      outer loop
         vertex 1.546034e-002 3.000000e-002 3.472448e-002
         vertex 1.546034e-002 0.000000e+000 3.472448e-002
         vertex 1.900534e-002 0.000000e+000 3.291821e-002
      endloop
   endfacet
   facet normal 4.694841e-001 0.000000e+000 8.829409e-001
      outer loop
         vertex 1.546034e-002 3.000000e-002 3.472448e-002
         vertex 1.900534e-002 0.000000e+000 3.291821e-002
         vertex 1.900534e-002 3.000000e-002 3.291821e-002
      endloop
   endfacet
   facet normal 5.299072e-001 0.000000e+000 8.480556e-001
      outer loop
         vertex 1.900534e-002 3.000000e-002 3.291821e-002
         vertex 1.900534e-002 0.000000e+000 3.291821e-002
         vertex 2.234212e-002 0.000000e+000 3.075128e-002
      endloop
   endfacet
   facet normal 5.592046e-001 0.000000e+000 8.290296e-001
      outer loop
         vertex 1.900534e-002 3.000000e-002 3.291821e-002
         vertex 2.234212e-002 0.000000e+000 3.075128e-002
         vertex 2.234212e-002 3.000000e-002 3.075128e-002
      endloop
   endfacet
   facet normal 6.156502e-001 0.000000e+000 7.880195e-001
      outer loop
         vertex 2.234212e-002 3.000000e-002 3.075128e-002
         vertex 2.234212e-002 0.000000e+000 3.075128e-002
         vertex 2.543411e-002 0.000000e+000 2.824744e-002
      endloop
   endfacet
   facet normal 6.427984e-001 0.000000e+000 7.660353e-001
      outer loop
         vertex 2.234212e-002 3.000000e-002 3.075128e-002
         vertex 2.543411e-002 0.000000e+000 2.824744e-002
         vertex 2.543411e-002 3.000000e-002 2.824744e-002
      endloop
   endfacet
   facet normal 6.946481e-001 0.000000e+000 7.193496e-001
      outer loop
         vertex 2.543411e-002 3.000000e-002 2.824744e-002
         vertex 2.543411e-002 0.000000e+000 2.824744e-002
         vertex 2.824744e-002 0.000000e+000 2.543411e-002
      endloop
   endfacet
   facet normal 7.193496e-001 0.000000e+000 6.946481e-001
      outer loop
         vertex 2.543411e-002 3.000000e-002 2.824744e-002
         vertex 2.824744e-002 0.000000e+000 2.543411e-002
         vertex 2.824744e-002 3.000000e-002 2.543411e-002
      endloop
   endfacet
   facet normal 7.660353e-001 0.000000e+000 6.427985e-001
      outer loop
         vertex 2.824744e-002 3.000000e-002 2.543411e-002
         vertex 2.824744e-002 0.000000e+000 2.543411e-002
         vertex 3.075128e-002 0.000000e+000 2.234212e-002
      endloop
   endfacet
   facet normal 7.880195e-001 0.000000e+000 6.156502e-001
      outer loop
         vertex 2.824744e-002 3.000000e-002 2.543411e-002
         vertex 3.075128e-002 0.000000e+000 2.234212e-002
         vertex 3.075128e-002 3.000000e-002 2.234212e-002
      endloop
   endfacet
   facet normal 8.290296e-001 0.000000e+000 5.592046e-001
      outer loop
         vertex 3.075128e-002 3.000000e-002 2.234212e-002
         vertex 3.075128e-002 0.000000e+000 2.234212e-002
         vertex 3.291821e-002 0.000000e+000 1.900534e-002
      endloop
   endfacet
   facet normal 8.480556e-001 0.000000e+000 5.299072e-001
      outer loop
         vertex 3.075128e-002 3.000000e-002 2.234212e-002
         vertex 3.291821e-002 0.000000e+000 1.900534e-002
         vertex 3.291821e-002 3.000000e-002 1.900534e-002
      endloop
   endfacet
   facet normal 8.829409e-001 0.000000e+000 4.694841e-001
      outer loop
         vertex 3.291821e-002 3.000000e-002 1.900534e-002
         vertex 3.291821e-002 0.000000e+000 1.900534e-002
         vertex 3.472448e-002 0.000000e+000 1.546034e-002
      endloop
   endfacet
   facet normal 8.988003e-001 0.000000e+000 4.383584e-001
      outer loop
         vertex 3.291821e-002 3.000000e-002 1.900534e-002
         vertex 3.472448e-002 0.000000e+000 1.546034e-002
         vertex 3.472448e-002 3.000000e-002 1.546034e-002
      endloop
   endfacet
   facet normal 9.271786e-001 0.000000e+000 3.746197e-001
      outer loop
         vertex 3.472448e-002 3.000000e-002 1.546034e-002
         vertex 3.472448e-002 0.000000e+000 1.546034e-002
         vertex 3.615030e-002 0.000000e+000 1.174595e-002
      endloop
   endfacet
   facet normal 9.396974e-001 0.000000e+000 3.420068e-001
      outer loop
         vertex 3.472448e-002 3.000000e-002 1.546034e-002
         vertex 3.615030e-002 0.000000e+000 1.174595e-002
         vertex 3.615030e-002 3.000000e-002 1.174595e-002
      endloop
   endfacet
   facet normal 9.612578e-001 0.000000e+000 2.756510e-001
      outer loop
         vertex 3.615030e-002 3.000000e-002 1.174595e-002
         vertex 3.615030e-002 0.000000e+000 1.174595e-002
         vertex 3.718005e-002 0.000000e+000 7.902864e-003
      endloop
   endfacet
   facet normal 9.702991e-001 0.000000e+000 2.419081e-001
      outer loop
         vertex 3.615030e-002 3.000000e-002 1.174595e-002
         vertex 3.718005e-002 0.000000e+000 7.902864e-003
         vertex 3.718005e-002 3.000000e-002 7.902864e-003
      endloop
   endfacet
   facet normal 9.848053e-001 0.000000e+000 1.736622e-001
      outer loop
         vertex 3.718005e-002 3.000000e-002 7.902864e-003
         vertex 3.718005e-002 0.000000e+000 7.902864e-003
         vertex 3.780245e-002 0.000000e+000 3.973198e-003
      endloop
   endfacet
   facet normal 9.902700e-001 0.000000e+000 1.391590e-001
      outer loop
         vertex 3.718005e-002 3.000000e-002 7.902864e-003
         vertex 3.780245e-002 0.000000e+000 3.973198e-003
         vertex 3.780245e-002 3.000000e-002 3.973198e-003
      endloop
   endfacet
   facet normal 9.975630e-001 0.000000e+000 6.977063e-002
      outer loop
         vertex 3.780245e-002 3.000000e-002 3.973198e-003
         vertex 3.780245e-002 0.000000e+000 3.973198e-003
         vertex 3.801068e-002 0.000000e+000 -2.327483e-018
      endloop
   endfacet
   facet normal 9.993913e-001 0.000000e+000 3.488532e-002
      outer loop
         vertex 3.780245e-002 3.000000e-002 3.973198e-003
         vertex 3.801068e-002 0.000000e+000 -2.327483e-018
         vertex 3.801068e-002 3.000000e-002 -2.327483e-018
      endloop
   endfacet
   facet normal 9.993913e-001 0.000000e+000 -3.488532e-002
      outer loop
         vertex 3.801068e-002 3.000000e-002 -2.327483e-018
         vertex 3.801068e-002 0.000000e+000 -2.327483e-018
         vertex 3.780245e-002 0.000000e+000 -3.973198e-003
      endloop
   endfacet
   facet normal 9.975630e-001 0.000000e+000 -6.977063e-002
      outer loop
         vertex 3.801068e-002 3.000000e-002 -2.327483e-018
         vertex 3.780245e-002 0.000000e+000 -3.973198e-003
         vertex 3.780245e-002 3.000000e-002 -3.973198e-003
      endloop
   endfacet
   facet normal 9.902700e-001 0.000000e+000 -1.391590e-001
      outer loop
         vertex 3.780245e-002 3.000000e-002 -3.973198e-003
         vertex 3.780245e-002 0.000000e+000 -3.973198e-003
         vertex 3.718005e-002 0.000000e+000 -7.902864e-003
      endloop
   endfacet
   facet normal 9.848053e-001 0.000000e+000 -1.736622e-001
      outer loop
         vertex 3.780245e-002 3.000000e-002 -3.973198e-003
         vertex 3.718005e-002 0.000000e+000 -7.902864e-003
         vertex 3.718005e-002 3.000000e-002 -7.902864e-003
      endloop
   endfacet
   facet normal 9.702991e-001 0.000000e+000 -2.419081e-001
      outer loop
         vertex 3.718005e-002 3.000000e-002 -7.902864e-003
         vertex 3.718005e-002 0.000000e+000 -7.902864e-003
         vertex 3.615030e-002 0.000000e+000 -1.174595e-002
      endloop
   endfacet
   facet normal 9.612578e-001 0.000000e+000 -2.756510e-001
      outer loop
         vertex 3.718005e-002 3.000000e-002 -7.902864e-003
         vertex 3.615030e-002 0.000000e+000 -1.174595e-002
         vertex 3.615030e-002 3.000000e-002 -1.174595e-002
      endloop
   endfacet
   facet normal 9.396975e-001 0.000000e+000 -3.420068e-001
      outer loop
         vertex 3.615030e-002 3.000000e-002 -1.174595e-002
         vertex 3.615030e-002 0.000000e+000 -1.174595e-002
         vertex 3.472448e-002 0.000000e+000 -1.546034e-002
      endloop
   endfacet
   facet normal 9.271786e-001 0.000000e+000 -3.746197e-001
      outer loop
         vertex 3.615030e-002 3.000000e-002 -1.174595e-002
         vertex 3.472448e-002 0.000000e+000 -1.546034e-002
         vertex 3.472448e-002 3.000000e-002 -1.546034e-002
      endloop
   endfacet
   facet normal 8.988003e-001 0.000000e+000 -4.383584e-001
      outer loop
         vertex 3.472448e-002 3.000000e-002 -1.546034e-002
         vertex 3.472448e-002 0.000000e+000 -1.546034e-002
         vertex 3.291821e-002 0.000000e+000 -1.900534e-002
      endloop
   endfacet
   facet normal 8.829409e-001 0.000000e+000 -4.694841e-001
      outer loop
         vertex 3.472448e-002 3.000000e-002 -1.546034e-002
         vertex 3.291821e-002 0.000000e+000 -1.900534e-002
         vertex 3.291821e-002 3.000000e-002 -1.900534e-002
      endloop
   endfacet
   facet normal 8.480556e-001 0.000000e+000 -5.299072e-001
      outer loop
         vertex 3.291821e-002 3.000000e-002 -1.900534e-002
         vertex 3.291821e-002 0.000000e+000 -1.900534e-002
         vertex 3.075128e-002 0.000000e+000 -2.234212e-002
      endloop
   endfacet
   facet normal 8.290296e-001 0.000000e+000 -5.592046e-001
      outer loop
         vertex 3.291821e-002 3.000000e-002 -1.900534e-002
         vertex 3.075128e-002 0.000000e+000 -2.234212e-002
         vertex 3.075128e-002 3.000000e-002 -2.234212e-002
      endloop
   endfacet
   facet normal 7.880195e-001 0.000000e+000 -6.156502e-001
      outer loop
         vertex 3.075128e-002 3.000000e-002 -2.234212e-002
         vertex 3.075128e-002 0.000000e+000 -2.234212e-002
         vertex 2.824744e-002 0.000000e+000 -2.543411e-002
      endloop
   endfacet
   facet normal 7.660353e-001 0.000000e+000 -6.427984e-001
      outer loop
         vertex 3.075128e-002 3.000000e-002 -2.234212e-002
         vertex 2.824744e-002 0.000000e+000 -2.543411e-002
         vertex 2.824744e-002 3.000000e-002 -2.543411e-002
      endloop
   endfacet
   facet normal 7.193496e-001 0.000000e+000 -6.946481e-001
      outer loop
         vertex 2.824744e-002 3.000000e-002 -2.543411e-002
         vertex 2.824744e-002 0.000000e+000 -2.543411e-002
         vertex 2.543411e-002 0.000000e+000 -2.824744e-002
      endloop
   endfacet
   facet normal 6.946481e-001 0.000000e+000 -7.193496e-001
      outer loop
         vertex 2.824744e-002 3.000000e-002 -2.543411e-002
         vertex 2.543411e-002 0.000000e+000 -2.824744e-002
         vertex 2.543411e-002 3.000000e-002 -2.824744e-002
      endloop
   endfacet
   facet normal 6.427985e-001 0.000000e+000 -7.660353e-001
      outer loop
         vertex 2.543411e-002 3.000000e-002 -2.824744e-002
         vertex 2.543411e-002 0.000000e+000 -2.824744e-002
         vertex 2.234212e-002 0.000000e+000 -3.075128e-002
      endloop
   endfacet
   facet normal 6.156502e-001 0.000000e+000 -7.880195e-001
      outer loop
         vertex 2.543411e-002 3.000000e-002 -2.824744e-002
         vertex 2.234212e-002 0.000000e+000 -3.075128e-002
         vertex 2.234212e-002 3.000000e-002 -3.075128e-002
      endloop
   endfacet
   facet normal 5.592046e-001 0.000000e+000 -8.290296e-001
      outer loop
         vertex 2.234212e-002 3.000000e-002 -3.075128e-002
         vertex 2.234212e-002 0.000000e+000 -3.075128e-002
         vertex 1.900534e-002 0.000000e+000 -3.291821e-002
      endloop
   endfacet
   facet normal 5.299072e-001 0.000000e+000 -8.480556e-001
      outer loop
         vertex 2.234212e-002 3.000000e-002 -3.075128e-002
         vertex 1.900534e-002 0.000000e+000 -3.291821e-002
         vertex 1.900534e-002 3.000000e-002 -3.291821e-002
      endloop
   endfacet
   facet normal 4.694841e-001 0.000000e+000 -8.829409e-001
      outer loop
         vertex 1.900534e-002 3.000000e-002 -3.291821e-002
         vertex 1.900534e-002 0.000000e+000 -3.291821e-002
         vertex 1.546034e-002 0.000000e+000 -3.472448e-002
      endloop
   endfacet
   facet normal 4.383584e-001 0.000000e+000 -8.988003e-001
      outer loop
         vertex 1.900534e-002 3.000000e-002 -3.291821e-002
         vertex 1.546034e-002 0.000000e+000 -3.472448e-002
         vertex 1.546034e-002 3.000000e-002 -3.472448e-002
      endloop
   endfacet
   facet normal 3.746197e-001 0.000000e+000 -9.271786e-001
      outer loop
         vertex 1.546034e-002 3.000000e-002 -3.472448e-002
         vertex 1.546034e-002 0.000000e+000 -3.472448e-002
         vertex 1.174595e-002 0.000000e+000 -3.615030e-002
      endloop
   endfacet
   facet normal 3.420068e-001 0.000000e+000 -9.396974e-001
      outer loop
         vertex 1.546034e-002 3.000000e-002 -3.472448e-002
         vertex 1.174595e-002 0.000000e+000 -3.615030e-002
         vertex 1.174595e-002 3.000000e-002 -3.615030e-002
      endloop
   endfacet
   facet normal 2.756510e-001 0.000000e+000 -9.612578e-001
      outer loop
         vertex 1.174595e-002 3.000000e-002 -3.615030e-002
         vertex 1.174595e-002 0.000000e+000 -3.615030e-002
         vertex 7.902864e-003 0.000000e+000 -3.718005e-002
      endloop
   endfacet
   facet normal 2.419081e-001 0.000000e+000 -9.702991e-001
      outer loop
         vertex 1.174595e-002 3.000000e-002 -3.615030e-002
         vertex 7.902864e-003 0.000000e+000 -3.718005e-002
         vertex 7.902864e-003 3.000000e-002 -3.718005e-002
      endloop
   endfacet
   facet normal 1.736622e-001 0.000000e+000 -9.848053e-001
      outer loop
         vertex 7.902864e-003 3.000000e-002 -3.718005e-002
         vertex 7.902864e-003 0.000000e+000 -3.718005e-002
         vertex 3.973198e-003 0.000000e+000 -3.780245e-002
      endloop
   endfacet
   facet normal 1.391590e-001 0.000000e+000 -9.902700e-001
      outer loop
         vertex 7.902864e-003 3.000000e-002 -3.718005e-002
         vertex 3.973198e-003 0.000000e+000 -3.780245e-002
         vertex 3.973198e-003 3.000000e-002 -3.780245e-002
      endloop
   endfacet
   facet normal 6.977063e-002 0.000000e+000 -9.975630e-001
      outer loop
         vertex 3.973198e-003 3.000000e-002 -3.780245e-002
         vertex 3.973198e-003 0.000000e+000 -3.780245e-002
         vertex 0.000000e+000 0.000000e+000 -3.801068e-002
      endloop
   endfacet
   facet normal 0.000000e+000 1.000000e+000 0.000000e+000
      outer loop
         vertex 1.900534e-002 3.000000e-002 -3.291821e-002
         vertex 1.546034e-002 3.000000e-002 -3.472448e-002
         vertex 3.780245e-002 3.000000e-002 -3.973198e-003
      endloop
   endfacet
   facet normal 0.000000e+000 1.000000e+000 0.000000e+000
      outer loop
         vertex 7.902864e-003 3.000000e-002 -3.718005e-002
         vertex 3.973198e-003 3.000000e-002 -3.780245e-002
         vertex -1.546034e-002 3.000000e-002 3.472448e-002
      endloop
   endfacet
   facet normal 0.000000e+000 1.000000e+000 0.000000e+000
      outer loop
         vertex 1.546034e-002 3.000000e-002 -3.472448e-002
         vertex -1.174595e-002 3.000000e-002 3.615030e-002
         vertex -7.902864e-003 3.000000e-002 3.718005e-002
      endloop
   endfacet
   facet normal 0.000000e+000 1.000000e+000 0.000000e+000
      outer loop
         vertex -1.174595e-002 3.000000e-002 3.615030e-002
         vertex 1.546034e-002 3.000000e-002 -3.472448e-002
         vertex -1.546034e-002 3.000000e-002 3.472448e-002
      endloop
   endfacet
   facet normal 0.000000e+000 1.000000e+000 0.000000e+000
      outer loop
         vertex -1.546034e-002 3.000000e-002 3.472448e-002
         vertex 1.546034e-002 3.000000e-002 -3.472448e-002
         vertex 1.174595e-002 3.000000e-002 -3.615030e-002
      endloop
   endfacet
   facet normal 0.000000e+000 1.000000e+000 0.000000e+000
      outer loop
         vertex -1.546034e-002 3.000000e-002 3.472448e-002
         vertex 1.174595e-002 3.000000e-002 -3.615030e-002
         vertex 7.902864e-003 3.000000e-002 -3.718005e-002
      endloop
   endfacet
   facet normal 0.000000e+000 1.000000e+000 0.000000e+000
      outer loop
         vertex 3.973198e-003 3.000000e-002 -3.780245e-002
         vertex 0.000000e+000 3.000000e-002 -3.801068e-002
         vertex -1.546034e-002 3.000000e-002 3.472448e-002
      endloop
   endfacet
   facet normal 0.000000e+000 1.000000e+000 0.000000e+000
      outer loop
         vertex -1.546034e-002 3.000000e-002 3.472448e-002
         vertex 0.000000e+000 3.000000e-002 -3.801068e-002
         vertex -3.973198e-003 3.000000e-002 -3.780245e-002
      endloop
   endfacet
   facet normal 0.000000e+000 1.000000e+000 0.000000e+000
      outer loop
         vertex -1.546034e-002 3.000000e-002 3.472448e-002
         vertex -3.973198e-003 3.000000e-002 -3.780245e-002
         vertex -7.902864e-003 3.000000e-002 -3.718005e-002
      endloop
   endfacet
   facet normal 0.000000e+000 1.000000e+000 0.000000e+000
      outer loop
         vertex -7.902864e-003 3.000000e-002 3.718005e-002
         vertex -3.973198e-003 3.000000e-002 3.780245e-002
         vertex 1.546034e-002 3.000000e-002 -3.472448e-002
      endloop
   endfacet
   facet normal 0.000000e+000 1.000000e+000 0.000000e+000
      outer loop
         vertex 1.546034e-002 3.000000e-002 -3.472448e-002
         vertex -3.973198e-003 3.000000e-002 3.780245e-002
         vertex 4.654966e-018 3.000000e-002 3.801068e-002
      endloop
   endfacet
   facet normal 0.000000e+000 1.000000e+000 0.000000e+000
      outer loop
         vertex 1.546034e-002 3.000000e-002 -3.472448e-002
         vertex 4.654966e-018 3.000000e-002 3.801068e-002
         vertex 3.973198e-003 3.000000e-002 3.780245e-002
      endloop
   endfacet
   facet normal 0.000000e+000 1.000000e+000 0.000000e+000
      outer loop
         vertex 3.973198e-003 3.000000e-002 3.780245e-002
         vertex 7.902864e-003 3.000000e-002 3.718005e-002
         vertex 1.546034e-002 3.000000e-002 -3.472448e-002
      endloop
   endfacet
   facet normal 0.000000e+000 1.000000e+000 0.000000e+000
      outer loop
         vertex 1.546034e-002 3.000000e-002 -3.472448e-002
         vertex 7.902864e-003 3.000000e-002 3.718005e-002
         vertex 1.174595e-002 3.000000e-002 3.615030e-002
      endloop
   endfacet
   facet normal 0.000000e+000 1.000000e+000 0.000000e+000
      outer loop
         vertex 1.546034e-002 3.000000e-002 -3.472448e-002
         vertex 1.174595e-002 3.000000e-002 3.615030e-002
         vertex 1.546034e-002 3.000000e-002 3.472448e-002
      endloop
   endfacet
   facet normal 0.000000e+000 1.000000e+000 0.000000e+000
      outer loop
         vertex 3.718005e-002 3.000000e-002 7.902864e-003
         vertex 3.780245e-002 3.000000e-002 3.973198e-003
         vertex 1.546034e-002 3.000000e-002 -3.472448e-002
      endloop
   endfacet
   facet normal 0.000000e+000 1.000000e+000 0.000000e+000
      outer loop
         vertex 1.546034e-002 3.000000e-002 -3.472448e-002
         vertex 3.780245e-002 3.000000e-002 3.973198e-003
         vertex 3.801068e-002 3.000000e-002 -2.327483e-018
      endloop
   endfacet
   facet normal 0.000000e+000 1.000000e+000 0.000000e+000
      outer loop
         vertex 1.546034e-002 3.000000e-002 -3.472448e-002
         vertex 3.801068e-002 3.000000e-002 -2.327483e-018
         vertex 3.780245e-002 3.000000e-002 -3.973198e-003
      endloop
   endfacet
   facet normal 0.000000e+000 1.000000e+000 0.000000e+000
      outer loop
         vertex -7.902864e-003 3.000000e-002 -3.718005e-002
         vertex -1.174595e-002 3.000000e-002 -3.615030e-002
         vertex -1.546034e-002 3.000000e-002 3.472448e-002
      endloop
   endfacet
   facet normal 0.000000e+000 1.000000e+000 0.000000e+000
      outer loop
         vertex -1.546034e-002 3.000000e-002 3.472448e-002
         vertex -1.174595e-002 3.000000e-002 -3.615030e-002
         vertex -1.546034e-002 3.000000e-002 -3.472448e-002
      endloop
   endfacet
   facet normal 0.000000e+000 1.000000e+000 0.000000e+000
      outer loop
         vertex -1.546034e-002 3.000000e-002 3.472448e-002
         vertex -1.546034e-002 3.000000e-002 -3.472448e-002
         vertex -1.900534e-002 3.000000e-002 -3.291821e-002
      endloop
   endfacet
   facet normal 0.000000e+000 1.000000e+000 0.000000e+000
      outer loop
         vertex -1.546034e-002 3.000000e-002 3.472448e-002
         vertex -2.824744e-002 3.000000e-002 -2.543411e-002
         vertex -3.075128e-002 3.000000e-002 -2.234212e-002
      endloop
   endfacet
   facet normal 0.000000e+000 1.000000e+000 0.000000e+000
      outer loop
         vertex -3.615030e-002 3.000000e-002 -1.174595e-002
         vertex -3.718005e-002 3.000000e-002 -7.902864e-003
         vertex -1.546034e-002 3.000000e-002 3.472448e-002
      endloop
   endfacet
   facet normal 0.000000e+000 1.000000e+000 0.000000e+000
      outer loop
         vertex -1.546034e-002 3.000000e-002 3.472448e-002
         vertex -3.718005e-002 3.000000e-002 -7.902864e-003
         vertex -3.780245e-002 3.000000e-002 -3.973198e-003
      endloop
   endfacet
   facet normal 0.000000e+000 1.000000e+000 0.000000e+000
      outer loop
         vertex 1.546034e-002 3.000000e-002 3.472448e-002
         vertex 1.900534e-002 3.000000e-002 3.291821e-002
         vertex 1.546034e-002 3.000000e-002 -3.472448e-002
      endloop
   endfacet
   facet normal 0.000000e+000 1.000000e+000 0.000000e+000
      outer loop
         vertex 1.546034e-002 3.000000e-002 -3.472448e-002
         vertex 1.900534e-002 3.000000e-002 3.291821e-002
         vertex 2.234212e-002 3.000000e-002 3.075128e-002
      endloop
   endfacet
   facet normal 0.000000e+000 1.000000e+000 0.000000e+000
      outer loop
         vertex 1.546034e-002 3.000000e-002 -3.472448e-002
         vertex 2.234212e-002 3.000000e-002 3.075128e-002
         vertex 2.543411e-002 3.000000e-002 2.824744e-002
      endloop
   endfacet
   facet normal 0.000000e+000 1.000000e+000 0.000000e+000
      outer loop
         vertex 1.900534e-002 3.000000e-002 -3.291821e-002
         vertex 3.780245e-002 3.000000e-002 -3.973198e-003
         vertex 2.234212e-002 3.000000e-002 -3.075128e-002
      endloop
   endfacet
   facet normal 0.000000e+000 1.000000e+000 0.000000e+000
      outer loop
         vertex 2.234212e-002 3.000000e-002 -3.075128e-002
         vertex 3.780245e-002 3.000000e-002 -3.973198e-003
         vertex 3.718005e-002 3.000000e-002 -7.902864e-003
      endloop
   endfacet
   facet normal 0.000000e+000 1.000000e+000 0.000000e+000
      outer loop
         vertex 2.234212e-002 3.000000e-002 -3.075128e-002
         vertex 3.718005e-002 3.000000e-002 -7.902864e-003
         vertex 3.615030e-002 3.000000e-002 -1.174595e-002
      endloop
   endfacet
   facet normal 0.000000e+000 1.000000e+000 0.000000e+000
      outer loop
         vertex -1.900534e-002 3.000000e-002 -3.291821e-002
         vertex -2.234212e-002 3.000000e-002 -3.075128e-002
         vertex -1.546034e-002 3.000000e-002 3.472448e-002
      endloop
   endfacet
   facet normal 0.000000e+000 1.000000e+000 0.000000e+000
      outer loop
         vertex -1.546034e-002 3.000000e-002 3.472448e-002
         vertex -2.234212e-002 3.000000e-002 -3.075128e-002
         vertex -2.543411e-002 3.000000e-002 -2.824744e-002
      endloop
   endfacet
   facet normal 0.000000e+000 1.000000e+000 0.000000e+000
      outer loop
         vertex -1.546034e-002 3.000000e-002 3.472448e-002
         vertex -2.543411e-002 3.000000e-002 -2.824744e-002
         vertex -2.824744e-002 3.000000e-002 -2.543411e-002
      endloop
   endfacet
   facet normal 0.000000e+000 1.000000e+000 0.000000e+000
      outer loop
         vertex 2.543411e-002 3.000000e-002 2.824744e-002
         vertex 2.824744e-002 3.000000e-002 2.543411e-002
         vertex 1.546034e-002 3.000000e-002 -3.472448e-002
      endloop
   endfacet
   facet normal 0.000000e+000 1.000000e+000 0.000000e+000
      outer loop
         vertex 1.546034e-002 3.000000e-002 -3.472448e-002
         vertex 2.824744e-002 3.000000e-002 2.543411e-002
         vertex 3.075128e-002 3.000000e-002 2.234212e-002
      endloop
   endfacet
   facet normal 0.000000e+000 1.000000e+000 0.000000e+000
      outer loop
         vertex 1.546034e-002 3.000000e-002 -3.472448e-002
         vertex 3.075128e-002 3.000000e-002 2.234212e-002
         vertex 3.291821e-002 3.000000e-002 1.900534e-002
      endloop
   endfacet
   facet normal 0.000000e+000 1.000000e+000 0.000000e+000
      outer loop
         vertex 3.615030e-002 3.000000e-002 -1.174595e-002
         vertex 3.472448e-002 3.000000e-002 -1.546034e-002
         vertex 2.234212e-002 3.000000e-002 -3.075128e-002
      endloop
   endfacet
   facet normal 0.000000e+000 1.000000e+000 0.000000e+000
      outer loop
         vertex 2.234212e-002 3.000000e-002 -3.075128e-002
         vertex 3.472448e-002 3.000000e-002 -1.546034e-002
         vertex 3.291821e-002 3.000000e-002 -1.900534e-002
      endloop
   endfacet
   facet normal 0.000000e+000 1.000000e+000 0.000000e+000
      outer loop
         vertex 2.234212e-002 3.000000e-002 -3.075128e-002
         vertex 3.291821e-002 3.000000e-002 -1.900534e-002
         vertex 2.543411e-002 3.000000e-002 -2.824744e-002
      endloop
   endfacet
   facet normal 0.000000e+000 1.000000e+000 0.000000e+000
      outer loop
         vertex 2.543411e-002 3.000000e-002 -2.824744e-002
         vertex 3.291821e-002 3.000000e-002 -1.900534e-002
         vertex 3.075128e-002 3.000000e-002 -2.234212e-002
      endloop
   endfacet
   facet normal 0.000000e+000 1.000000e+000 0.000000e+000
      outer loop
         vertex 2.543411e-002 3.000000e-002 -2.824744e-002
         vertex 3.075128e-002 3.000000e-002 -2.234212e-002
         vertex 2.824744e-002 3.000000e-002 -2.543411e-002
      endloop
   endfacet
   facet normal 0.000000e+000 1.000000e+000 0.000000e+000
      outer loop
         vertex -3.075128e-002 3.000000e-002 -2.234212e-002
         vertex -3.291821e-002 3.000000e-002 -1.900534e-002
         vertex -1.546034e-002 3.000000e-002 3.472448e-002
      endloop
   endfacet
   facet normal 0.000000e+000 1.000000e+000 0.000000e+000
      outer loop
         vertex -1.546034e-002 3.000000e-002 3.472448e-002
         vertex -3.291821e-002 3.000000e-002 -1.900534e-002
         vertex -3.472448e-002 3.000000e-002 -1.546034e-002
      endloop
   endfacet
   facet normal 0.000000e+000 1.000000e+000 0.000000e+000
      outer loop
         vertex -1.546034e-002 3.000000e-002 3.472448e-002
         vertex -3.472448e-002 3.000000e-002 -1.546034e-002
         vertex -3.615030e-002 3.000000e-002 -1.174595e-002
      endloop
   endfacet
   facet normal 0.000000e+000 1.000000e+000 0.000000e+000
      outer loop
         vertex -2.234212e-002 3.000000e-002 3.075128e-002
         vertex -3.780245e-002 3.000000e-002 3.973198e-003
         vertex -2.543411e-002 3.000000e-002 2.824744e-002
      endloop
   endfacet
   facet normal 0.000000e+000 1.000000e+000 0.000000e+000
      outer loop
         vertex -2.543411e-002 3.000000e-002 2.824744e-002
         vertex -3.780245e-002 3.000000e-002 3.973198e-003
         vertex -3.718005e-002 3.000000e-002 7.902864e-003
      endloop
   endfacet
   facet normal 0.000000e+000 1.000000e+000 0.000000e+000
      outer loop
         vertex -2.543411e-002 3.000000e-002 2.824744e-002
         vertex -3.718005e-002 3.000000e-002 7.902864e-003
         vertex -3.615030e-002 3.000000e-002 1.174595e-002
      endloop
   endfacet
   facet normal 0.000000e+000 1.000000e+000 0.000000e+000
      outer loop
         vertex -3.780245e-002 3.000000e-002 -3.973198e-003
         vertex -3.801068e-002 3.000000e-002 6.982448e-018
         vertex -1.546034e-002 3.000000e-002 3.472448e-002
      endloop
   endfacet
   facet normal 0.000000e+000 1.000000e+000 0.000000e+000
      outer loop
         vertex -1.546034e-002 3.000000e-002 3.472448e-002
         vertex -3.801068e-002 3.000000e-002 6.982448e-018
         vertex -3.780245e-002 3.000000e-002 3.973198e-003
      endloop
   endfacet
   facet normal 0.000000e+000 1.000000e+000 0.000000e+000
      outer loop
         vertex -1.546034e-002 3.000000e-002 3.472448e-002
         vertex -3.780245e-002 3.000000e-002 3.973198e-003
         vertex -1.900534e-002 3.000000e-002 3.291821e-002
      endloop
   endfacet
   facet normal 0.000000e+000 1.000000e+000 0.000000e+000
      outer loop
         vertex -1.900534e-002 3.000000e-002 3.291821e-002
         vertex -3.780245e-002 3.000000e-002 3.973198e-003
         vertex -2.234212e-002 3.000000e-002 3.075128e-002
      endloop
   endfacet
   facet normal 0.000000e+000 1.000000e+000 0.000000e+000
      outer loop
         vertex 3.291821e-002 3.000000e-002 1.900534e-002
         vertex 3.472448e-002 3.000000e-002 1.546034e-002
         vertex 1.546034e-002 3.000000e-002 -3.472448e-002
      endloop
   endfacet
   facet normal 0.000000e+000 1.000000e+000 0.000000e+000
      outer loop
         vertex 1.546034e-002 3.000000e-002 -3.472448e-002
         vertex 3.472448e-002 3.000000e-002 1.546034e-002
         vertex 3.615030e-002 3.000000e-002 1.174595e-002
      endloop
   endfacet
   facet normal 0.000000e+000 1.000000e+000 0.000000e+000
      outer loop
         vertex 1.546034e-002 3.000000e-002 -3.472448e-002
         vertex 3.615030e-002 3.000000e-002 1.174595e-002
         vertex 3.718005e-002 3.000000e-002 7.902864e-003
      endloop
   endfacet
   facet normal 0.000000e+000 1.000000e+000 0.000000e+000
      outer loop
         vertex -3.615030e-002 3.000000e-002 1.174595e-002
         vertex -3.472448e-002 3.000000e-002 1.546034e-002
         vertex -2.543411e-002 3.000000e-002 2.824744e-002
      endloop
   endfacet
   facet normal 0.000000e+000 1.000000e+000 0.000000e+000
      outer loop
         vertex -2.543411e-002 3.000000e-002 2.824744e-002
         vertex -3.472448e-002 3.000000e-002 1.546034e-002
         vertex -3.291821e-002 3.000000e-002 1.900534e-002
      endloop
   endfacet
   facet normal 0.000000e+000 1.000000e+000 0.000000e+000
      outer loop
         vertex -2.543411e-002 3.000000e-002 2.824744e-002
         vertex -3.291821e-002 3.000000e-002 1.900534e-002
         vertex -2.824744e-002 3.000000e-002 2.543411e-002
      endloop
   endfacet
   facet normal 0.000000e+000 1.000000e+000 0.000000e+000
      outer loop
         vertex -2.824744e-002 3.000000e-002 2.543411e-002
         vertex -3.291821e-002 3.000000e-002 1.900534e-002
         vertex -3.075128e-002 3.000000e-002 2.234212e-002
      endloop
   endfacet
   facet normal 0.000000e+000 -1.000000e+000 0.000000e+000
      outer loop
         vertex 1.900534e-002 0.000000e+000 -3.291821e-002
         vertex -1.546034e-002 0.000000e+000 3.472448e-002
         vertex 1.546034e-002 0.000000e+000 -3.472448e-002
      endloop
   endfacet
   facet normal 0.000000e+000 -1.000000e+000 0.000000e+000
      outer loop
         vertex 1.546034e-002 0.000000e+000 -3.472448e-002
         vertex -1.546034e-002 0.000000e+000 3.472448e-002
         vertex -1.900534e-002 0.000000e+000 3.291821e-002
      endloop
   endfacet
   facet normal 0.000000e+000 -1.000000e+000 0.000000e+000
      outer loop
         vertex 1.546034e-002 0.000000e+000 -3.472448e-002
         vertex -1.900534e-002 0.000000e+000 3.291821e-002
         vertex -2.234212e-002 0.000000e+000 3.075128e-002
      endloop
   endfacet
   facet normal 0.000000e+000 -1.000000e+000 0.000000e+000
      outer loop
         vertex -7.902864e-003 0.000000e+000 -3.718005e-002
         vertex -3.973198e-003 0.000000e+000 -3.780245e-002
         vertex -3.615030e-002 0.000000e+000 -1.174595e-002
      endloop
   endfacet
   facet normal 0.000000e+000 -1.000000e+000 0.000000e+000
      outer loop
         vertex 1.546034e-002 0.000000e+000 -3.472448e-002
         vertex -3.801068e-002 0.000000e+000 6.982448e-018
         vertex -3.780245e-002 0.000000e+000 -3.973198e-003
      endloop
   endfacet
   facet normal 0.000000e+000 -1.000000e+000 0.000000e+000
      outer loop
         vertex -2.234212e-002 0.000000e+000 -3.075128e-002
         vertex -1.900534e-002 0.000000e+000 -3.291821e-002
         vertex -2.543411e-002 0.000000e+000 -2.824744e-002
      endloop
   endfacet
   facet normal 0.000000e+000 -1.000000e+000 0.000000e+000
      outer loop
         vertex -2.543411e-002 0.000000e+000 -2.824744e-002
         vertex -1.900534e-002 0.000000e+000 -3.291821e-002
         vertex -2.824744e-002 0.000000e+000 -2.543411e-002
      endloop
   endfacet
   facet normal 0.000000e+000 -1.000000e+000 0.000000e+000
      outer loop
         vertex -3.291821e-002 0.000000e+000 -1.900534e-002
         vertex -3.075128e-002 0.000000e+000 -2.234212e-002
         vertex -1.174595e-002 0.000000e+000 -3.615030e-002
      endloop
   endfacet
   facet normal 0.000000e+000 -1.000000e+000 0.000000e+000
      outer loop
         vertex -1.174595e-002 0.000000e+000 -3.615030e-002
         vertex -3.075128e-002 0.000000e+000 -2.234212e-002
         vertex -2.824744e-002 0.000000e+000 -2.543411e-002
      endloop
   endfacet
   facet normal 0.000000e+000 -1.000000e+000 0.000000e+000
      outer loop
         vertex -1.174595e-002 0.000000e+000 -3.615030e-002
         vertex -2.824744e-002 0.000000e+000 -2.543411e-002
         vertex -1.546034e-002 0.000000e+000 -3.472448e-002
      endloop
   endfacet
   facet normal 0.000000e+000 -1.000000e+000 0.000000e+000
      outer loop
         vertex -1.546034e-002 0.000000e+000 -3.472448e-002
         vertex -2.824744e-002 0.000000e+000 -2.543411e-002
         vertex -1.900534e-002 0.000000e+000 -3.291821e-002
      endloop
   endfacet
   facet normal 0.000000e+000 -1.000000e+000 0.000000e+000
      outer loop
         vertex -3.973198e-003 0.000000e+000 -3.780245e-002
         vertex 0.000000e+000 0.000000e+000 -3.801068e-002
         vertex -3.615030e-002 0.000000e+000 -1.174595e-002
      endloop
   endfacet
   facet normal 0.000000e+000 -1.000000e+000 0.000000e+000
      outer loop
         vertex -3.615030e-002 0.000000e+000 -1.174595e-002
         vertex 0.000000e+000 0.000000e+000 -3.801068e-002
         vertex 3.973198e-003 0.000000e+000 -3.780245e-002
      endloop
   endfacet
   facet normal 0.000000e+000 -1.000000e+000 0.000000e+000
      outer loop
         vertex -3.615030e-002 0.000000e+000 -1.174595e-002
         vertex 3.973198e-003 0.000000e+000 -3.780245e-002
         vertex 7.902864e-003 0.000000e+000 -3.718005e-002
      endloop
   endfacet
   facet normal 0.000000e+000 -1.000000e+000 0.000000e+000
      outer loop
         vertex -1.546034e-002 0.000000e+000 3.472448e-002
         vertex 3.472448e-002 0.000000e+000 -1.546034e-002
         vertex 3.615030e-002 0.000000e+000 -1.174595e-002
      endloop
   endfacet
   facet normal 0.000000e+000 -1.000000e+000 0.000000e+000
      outer loop
         vertex 3.801068e-002 0.000000e+000 -2.327483e-018
         vertex 3.780245e-002 0.000000e+000 3.973198e-003
         vertex -1.546034e-002 0.000000e+000 3.472448e-002
      endloop
   endfacet
   facet normal 0.000000e+000 -1.000000e+000 0.000000e+000
      outer loop
         vertex -1.546034e-002 0.000000e+000 3.472448e-002
         vertex 3.780245e-002 0.000000e+000 3.973198e-003
         vertex 3.718005e-002 0.000000e+000 7.902864e-003
      endloop
   endfacet
   facet normal 0.000000e+000 -1.000000e+000 0.000000e+000
      outer loop
         vertex -1.546034e-002 0.000000e+000 3.472448e-002
         vertex 3.718005e-002 0.000000e+000 7.902864e-003
         vertex -1.174595e-002 0.000000e+000 3.615030e-002
      endloop
   endfacet
   facet normal 0.000000e+000 -1.000000e+000 0.000000e+000
      outer loop
         vertex -2.234212e-002 0.000000e+000 3.075128e-002
         vertex -2.543411e-002 0.000000e+000 2.824744e-002
         vertex 1.546034e-002 0.000000e+000 -3.472448e-002
      endloop
   endfacet
   facet normal 0.000000e+000 -1.000000e+000 0.000000e+000
      outer loop
         vertex 1.546034e-002 0.000000e+000 -3.472448e-002
         vertex -2.543411e-002 0.000000e+000 2.824744e-002
         vertex -2.824744e-002 0.000000e+000 2.543411e-002
      endloop
   endfacet
   facet normal 0.000000e+000 -1.000000e+000 0.000000e+000
      outer loop
         vertex 1.546034e-002 0.000000e+000 -3.472448e-002
         vertex -2.824744e-002 0.000000e+000 2.543411e-002
         vertex -3.075128e-002 0.000000e+000 2.234212e-002
      endloop
   endfacet
   facet normal 0.000000e+000 -1.000000e+000 0.000000e+000
      outer loop
         vertex 7.902864e-003 0.000000e+000 -3.718005e-002
         vertex 1.174595e-002 0.000000e+000 -3.615030e-002
         vertex -3.615030e-002 0.000000e+000 -1.174595e-002
      endloop
   endfacet
   facet normal 0.000000e+000 -1.000000e+000 0.000000e+000
      outer loop
         vertex -3.615030e-002 0.000000e+000 -1.174595e-002
         vertex 1.174595e-002 0.000000e+000 -3.615030e-002
         vertex 1.546034e-002 0.000000e+000 -3.472448e-002
      endloop
   endfacet
   facet normal 0.000000e+000 -1.000000e+000 0.000000e+000
      outer loop
         vertex -3.615030e-002 0.000000e+000 -1.174595e-002
         vertex 1.546034e-002 0.000000e+000 -3.472448e-002
         vertex -3.718005e-002 0.000000e+000 -7.902864e-003
      endloop
   endfacet
   facet normal 0.000000e+000 -1.000000e+000 0.000000e+000
      outer loop
         vertex -3.718005e-002 0.000000e+000 -7.902864e-003
         vertex 1.546034e-002 0.000000e+000 -3.472448e-002
         vertex -3.780245e-002 0.000000e+000 -3.973198e-003
      endloop
   endfacet
   facet normal 0.000000e+000 -1.000000e+000 0.000000e+000
      outer loop
         vertex -7.902864e-003 0.000000e+000 -3.718005e-002
         vertex -3.615030e-002 0.000000e+000 -1.174595e-002
         vertex -1.174595e-002 0.000000e+000 -3.615030e-002
      endloop
   endfacet
   facet normal 0.000000e+000 -1.000000e+000 0.000000e+000
      outer loop
         vertex -1.174595e-002 0.000000e+000 -3.615030e-002
         vertex -3.615030e-002 0.000000e+000 -1.174595e-002
         vertex -3.472448e-002 0.000000e+000 -1.546034e-002
      endloop
   endfacet
   facet normal 0.000000e+000 -1.000000e+000 0.000000e+000
      outer loop
         vertex -1.174595e-002 0.000000e+000 -3.615030e-002
         vertex -3.472448e-002 0.000000e+000 -1.546034e-002
         vertex -3.291821e-002 0.000000e+000 -1.900534e-002
      endloop
   endfacet
   facet normal 0.000000e+000 -1.000000e+000 0.000000e+000
      outer loop
         vertex 3.615030e-002 0.000000e+000 -1.174595e-002
         vertex 3.718005e-002 0.000000e+000 -7.902864e-003
         vertex -1.546034e-002 0.000000e+000 3.472448e-002
      endloop
   endfacet
   facet normal 0.000000e+000 -1.000000e+000 0.000000e+000
      outer loop
         vertex -1.546034e-002 0.000000e+000 3.472448e-002
         vertex 3.718005e-002 0.000000e+000 -7.902864e-003
         vertex 3.780245e-002 0.000000e+000 -3.973198e-003
      endloop
   endfacet
   facet normal 0.000000e+000 -1.000000e+000 0.000000e+000
      outer loop
         vertex -1.546034e-002 0.000000e+000 3.472448e-002
         vertex 3.780245e-002 0.000000e+000 -3.973198e-003
         vertex 3.801068e-002 0.000000e+000 -2.327483e-018
      endloop
   endfacet
   facet normal 0.000000e+000 -1.000000e+000 0.000000e+000
      outer loop
         vertex 3.472448e-002 0.000000e+000 1.546034e-002
         vertex 3.291821e-002 0.000000e+000 1.900534e-002
         vertex 3.973198e-003 0.000000e+000 3.780245e-002
      endloop
   endfacet
   facet normal 0.000000e+000 -1.000000e+000 0.000000e+000
      outer loop
         vertex 3.973198e-003 0.000000e+000 3.780245e-002
         vertex 3.291821e-002 0.000000e+000 1.900534e-002
         vertex 3.075128e-002 0.000000e+000 2.234212e-002
      endloop
   endfacet
   facet normal 0.000000e+000 -1.000000e+000 0.000000e+000
      outer loop
         vertex 3.973198e-003 0.000000e+000 3.780245e-002
         vertex 3.075128e-002 0.000000e+000 2.234212e-002
         vertex 2.824744e-002 0.000000e+000 2.543411e-002
      endloop
   endfacet
   facet normal 0.000000e+000 -1.000000e+000 0.000000e+000
      outer loop
         vertex 2.824744e-002 0.000000e+000 2.543411e-002
         vertex 2.543411e-002 0.000000e+000 2.824744e-002
         vertex 3.973198e-003 0.000000e+000 3.780245e-002
      endloop
   endfacet
   facet normal 0.000000e+000 -1.000000e+000 0.000000e+000
      outer loop
         vertex 3.973198e-003 0.000000e+000 3.780245e-002
         vertex 2.543411e-002 0.000000e+000 2.824744e-002
         vertex 2.234212e-002 0.000000e+000 3.075128e-002
      endloop
   endfacet
   facet normal 0.000000e+000 -1.000000e+000 0.000000e+000
      outer loop
         vertex 3.973198e-003 0.000000e+000 3.780245e-002
         vertex 2.234212e-002 0.000000e+000 3.075128e-002
         vertex 1.900534e-002 0.000000e+000 3.291821e-002
      endloop
   endfacet
   facet normal 0.000000e+000 -1.000000e+000 0.000000e+000
      outer loop
         vertex 1.900534e-002 0.000000e+000 3.291821e-002
         vertex 1.546034e-002 0.000000e+000 3.472448e-002
         vertex 3.973198e-003 0.000000e+000 3.780245e-002
      endloop
   endfacet
   facet normal 0.000000e+000 -1.000000e+000 0.000000e+000
      outer loop
         vertex 3.973198e-003 0.000000e+000 3.780245e-002
         vertex 1.546034e-002 0.000000e+000 3.472448e-002
         vertex 1.174595e-002 0.000000e+000 3.615030e-002
      endloop
   endfacet
   facet normal 0.000000e+000 -1.000000e+000 0.000000e+000
      outer loop
         vertex 3.973198e-003 0.000000e+000 3.780245e-002
         vertex 1.174595e-002 0.000000e+000 3.615030e-002
         vertex 7.902864e-003 0.000000e+000 3.718005e-002
      endloop
   endfacet
   facet normal 0.000000e+000 -1.000000e+000 0.000000e+000
      outer loop
         vertex 1.396490e-017 0.000000e+000 3.801068e-002
         vertex -3.973198e-003 0.000000e+000 3.780245e-002
         vertex 3.718005e-002 0.000000e+000 7.902864e-003
      endloop
   endfacet
   facet normal 0.000000e+000 -1.000000e+000 0.000000e+000
      outer loop
         vertex 3.718005e-002 0.000000e+000 7.902864e-003
         vertex -3.973198e-003 0.000000e+000 3.780245e-002
         vertex -7.902864e-003 0.000000e+000 3.718005e-002
      endloop
   endfacet
   facet normal 0.000000e+000 -1.000000e+000 0.000000e+000
      outer loop
         vertex 3.718005e-002 0.000000e+000 7.902864e-003
         vertex -7.902864e-003 0.000000e+000 3.718005e-002
         vertex -1.174595e-002 0.000000e+000 3.615030e-002
      endloop
   endfacet
   facet normal 0.000000e+000 -1.000000e+000 0.000000e+000
      outer loop
         vertex -3.075128e-002 0.000000e+000 2.234212e-002
         vertex -3.291821e-002 0.000000e+000 1.900534e-002
         vertex 1.546034e-002 0.000000e+000 -3.472448e-002
      endloop
   endfacet
   facet normal 0.000000e+000 -1.000000e+000 0.000000e+000
      outer loop
         vertex 1.546034e-002 0.000000e+000 -3.472448e-002
         vertex -3.291821e-002 0.000000e+000 1.900534e-002
         vertex -3.472448e-002 0.000000e+000 1.546034e-002
      endloop
   endfacet
   facet normal 0.000000e+000 -1.000000e+000 0.000000e+000
      outer loop
         vertex 1.546034e-002 0.000000e+000 -3.472448e-002
         vertex -3.472448e-002 0.000000e+000 1.546034e-002
         vertex -3.615030e-002 0.000000e+000 1.174595e-002
      endloop
   endfacet
   facet normal 0.000000e+000 -1.000000e+000 0.000000e+000
      outer loop
         vertex -3.615030e-002 0.000000e+000 1.174595e-002
         vertex -3.718005e-002 0.000000e+000 7.902864e-003
         vertex 1.546034e-002 0.000000e+000 -3.472448e-002
      endloop
   endfacet
   facet normal 0.000000e+000 -1.000000e+000 0.000000e+000
      outer loop
         vertex 1.546034e-002 0.000000e+000 -3.472448e-002
         vertex -3.718005e-002 0.000000e+000 7.902864e-003
         vertex -3.780245e-002 0.000000e+000 3.973198e-003
      endloop
   endfacet
   facet normal 0.000000e+000 -1.000000e+000 0.000000e+000
      outer loop
         vertex 1.546034e-002 0.000000e+000 -3.472448e-002
         vertex -3.780245e-002 0.000000e+000 3.973198e-003
         vertex -3.801068e-002 0.000000e+000 6.982448e-018
      endloop
   endfacet
   facet normal 0.000000e+000 -1.000000e+000 0.000000e+000
      outer loop
         vertex 1.900534e-002 0.000000e+000 -3.291821e-002
         vertex 2.234212e-002 0.000000e+000 -3.075128e-002
         vertex -1.546034e-002 0.000000e+000 3.472448e-002
      endloop
   endfacet
   facet normal 0.000000e+000 -1.000000e+000 0.000000e+000
      outer loop
         vertex -1.546034e-002 0.000000e+000 3.472448e-002
         vertex 2.234212e-002 0.000000e+000 -3.075128e-002
         vertex 2.543411e-002 0.000000e+000 -2.824744e-002
      endloop
   endfacet
   facet normal 0.000000e+000 -1.000000e+000 0.000000e+000
      outer loop
         vertex -1.546034e-002 0.000000e+000 3.472448e-002
         vertex 2.543411e-002 0.000000e+000 -2.824744e-002
         vertex 2.824744e-002 0.000000e+000 -2.543411e-002
      endloop
   endfacet
   facet normal 0.000000e+000 -1.000000e+000 0.000000e+000
      outer loop
         vertex 1.396490e-017 0.000000e+000 3.801068e-002
         vertex 3.718005e-002 0.000000e+000 7.902864e-003
         vertex 3.973198e-003 0.000000e+000 3.780245e-002
      endloop
   endfacet
   facet normal 0.000000e+000 -1.000000e+000 0.000000e+000
      outer loop
         vertex 3.973198e-003 0.000000e+000 3.780245e-002
         vertex 3.718005e-002 0.000000e+000 7.902864e-003
         vertex 3.615030e-002 0.000000e+000 1.174595e-002
      endloop
   endfacet
   facet normal 0.000000e+000 -1.000000e+000 0.000000e+000
      outer loop
         vertex 3.973198e-003 0.000000e+000 3.780245e-002
         vertex 3.615030e-002 0.000000e+000 1.174595e-002
         vertex 3.472448e-002 0.000000e+000 1.546034e-002
      endloop
   endfacet
   facet normal 0.000000e+000 -1.000000e+000 0.000000e+000
      outer loop
         vertex 2.824744e-002 0.000000e+000 -2.543411e-002
         vertex 3.075128e-002 0.000000e+000 -2.234212e-002
         vertex -1.546034e-002 0.000000e+000 3.472448e-002
      endloop
   endfacet
   facet normal 0.000000e+000 -1.000000e+000 0.000000e+000
      outer loop
         vertex -1.546034e-002 0.000000e+000 3.472448e-002
         vertex 3.075128e-002 0.000000e+000 -2.234212e-002
         vertex 3.291821e-002 0.000000e+000 -1.900534e-002
      endloop
   endfacet
   facet normal 0.000000e+000 -1.000000e+000 0.000000e+000
      outer loop
         vertex -1.546034e-002 0.000000e+000 3.472448e-002
         vertex 3.291821e-002 0.000000e+000 -1.900534e-002
         vertex 3.472448e-002 0.000000e+000 -1.546034e-002
      endloop
   endfacet
endsolid